<svg xmlns="http://www.w3.org/2000/svg" width="600" height="600.262"><path d="M300.026 600.262h-.017a296.487 296.487 0 0 1-84.148-12.268 322.633 322.633 0 0 1-79.893-36.35 2.953 2.953 0 0 0-1.587-.463 2.876 2.876 0 0 0-.884.137L25.043 585.973a7.742 7.742 0 0 1-2.269.432 1.842 1.842 0 0 1-1.591-.649c-.48-.667-.434-1.876.139-3.592l35.131-104.438a3.044 3.044 0 0 0-.385-2.678 307.2 307.2 0 0 1-44.524-92.863A299.5 299.5 0 0 1 .462 283.207a298.239 298.239 0 0 1 21.971-97.043 304.149 304.149 0 0 1 54.634-87.057 297.751 297.751 0 0 1 47.936-43.224 294.96 294.96 0 0 1 54.389-30.987 298.376 298.376 0 0 1 58.77-18.659 302.173 302.173 0 0 1 61.073-6.239 302.27 302.27 0 0 1 93.643 14.839 302.271 302.271 0 0 1 86.66 44.738 302.269 302.269 0 0 1 61.337 60.519 290.319 290.319 0 0 1 39.4 70.991 302.576 302.576 0 0 1 15.963 155.317 303.624 303.624 0 0 1-63.21 143.39 291.633 291.633 0 0 1-59.49 55.617 302.481 302.481 0 0 1-77.082 38.809 301.224 301.224 0 0 1-96.43 16.044Zm168.063-166.107a71.6 71.6 0 0 1-5.6 7c-15.159 16.688-38.29 26.287-63.462 26.335 25.171-.044 48.3-9.64 63.459-26.328a71.315 71.315 0 0 0 5.602-7.007Zm-86.027 31.928a101.669 101.669 0 0 0 16.742 1.407 101.738 101.738 0 0 1-16.741-1.407ZM216.007 177.168a20.637 20.637 0 0 0-5.985 1.194 21.2 21.2 0 0 0-5.413 2.934 21.636 21.636 0 0 0-5.391 5.228 20.158 20.158 0 0 0-3.076 6.66 37.941 37.941 0 0 0-.706 8.639v198.086a32.917 32.917 0 0 0 .459 5.758 21.279 21.279 0 0 0 1.534 5.1 19.932 19.932 0 0 0 7.232 8.342 20.63 20.63 0 0 0 5.264 2.869 20.928 20.928 0 0 0 5.9 1.216h2.161a23.765 23.765 0 0 0 5.294-1.08 31.734 31.734 0 0 0 5.455-2.375 71808.975 71808.975 0 0 0 142.683-78.093 7962.97 7962.97 0 0 0 40.675-22.133 22.194 22.194 0 0 0 4.628-3.379 22.457 22.457 0 0 0 3.512-4.294 22.854 22.854 0 0 0 3.428-10.215 21.781 21.781 0 0 0-.145-4.95 20.654 20.654 0 0 0-1.3-4.8 20.164 20.164 0 0 0-6.265-8.281 34.082 34.082 0 0 0-4.618-3.027 3732.28 3732.28 0 0 0-40.036-21.848c-.139-.1-.28-.183-.418-.26a192136.54 192136.54 0 0 0-142.28-77.868c-4.591-11.148-8.564-20.112-11.81-26.644-4.08-8.21-7.161-12.889-9.157-13.908 2 1.018 5.076 5.7 9.155 13.908 3.247 6.533 7.221 15.5 11.811 26.644l-1.133-.619a23.632 23.632 0 0 0-9.183-2.8Zm264.9 210.794q.021.513.037 1.024l-.036-1.023Zm-119.981-9.149a27.42 27.42 0 0 1-6.455 5.229 17.254 17.254 0 0 1-7.676 2.285 17.246 17.246 0 0 0 7.676-2.285 27.419 27.419 0 0 0 6.455-5.229Zm-22.351 6.182a22.554 22.554 0 0 0 6.21 1.327 22.591 22.591 0 0 1-6.212-1.332Zm140.936-4.652a2.876 2.876 0 0 1 .935 1.6 2.885 2.885 0 0 0-.937-1.605Zm-111.947-10.091c-.569.841-1.1 1.612-1.622 2.338.507-.718 1.042-1.489 1.62-2.343Zm3.535-5.388-.093.143c-.386.6-.8 1.233-1.206 1.864l1.078-1.663.126-.2Zm24.3-22.2c-7.833.72-13.332 6.7-17.268 11.871 3.936-5.181 9.437-11.159 17.267-11.88Zm2.209-.062a20.385 20.385 0 0 1 3.6.46 20.481 20.481 0 0 0-3.601-.469ZM151.672 152.928a121.04 121.04 0 0 0-1.893 2.228 102.4 102.4 0 0 1 1.893-2.237Zm1.332-1.464-.017.018-.049.052-.07.074c-.219.232-.414.444-.6.646.226-.248.416-.452.6-.647q.067-.079.136-.152Zm33.7-14.886a52.885 52.885 0 0 0-12.358 2.107 52.915 52.915 0 0 1 12.362-2.116Zm5.566.021a49.2 49.2 0 0 1 7.851 1.083 49.23 49.23 0 0 0-7.847-1.092Z" fill="#fff"/></svg>