<svg xmlns="http://www.w3.org/2000/svg" width="80" height="80.035" viewBox="0 0 80 80.035">
  <path id="ic_splash" d="M-8943.424,1251.478h0a39.533,39.533,0,0,1-11.22-1.636A43.04,43.04,0,0,1-8965.3,1245a.393.393,0,0,0-.212-.062.373.373,0,0,0-.117.018l-14.461,4.621a1.033,1.033,0,0,1-.3.058.246.246,0,0,1-.212-.086c-.064-.089-.058-.25.019-.479l4.685-13.925a.407.407,0,0,0-.052-.357,40.987,40.987,0,0,1-5.937-12.382,39.937,39.937,0,0,1-1.478-13.2,39.748,39.748,0,0,1,2.93-12.939,40.554,40.554,0,0,1,7.284-11.608,39.755,39.755,0,0,1,6.392-5.763,39.341,39.341,0,0,1,7.252-4.131,39.793,39.793,0,0,1,7.836-2.488,40.286,40.286,0,0,1,8.144-.832,40.291,40.291,0,0,1,12.485,1.979,40.313,40.313,0,0,1,11.555,5.965,40.284,40.284,0,0,1,8.178,8.069,38.671,38.671,0,0,1,5.254,9.465,40.342,40.342,0,0,1,2.128,20.709,40.474,40.474,0,0,1-8.428,19.119,38.878,38.878,0,0,1-7.932,7.415,40.324,40.324,0,0,1-10.278,5.175A40.158,40.158,0,0,1-8943.424,1251.478Zm22.557-22.366a9.466,9.466,0,0,1-.895,1.151,11.4,11.4,0,0,1-8.462,3.511,11.392,11.392,0,0,0,8.462-3.51A9.437,9.437,0,0,0-8920.867,1229.112Zm-11.618,4.475h0a13.744,13.744,0,0,0,1.871.182,13.691,13.691,0,0,1-1.871-.183Zm-22.141-38.522a2.759,2.759,0,0,0-.8.159,2.837,2.837,0,0,0-.722.391,2.86,2.86,0,0,0-.719.7,2.692,2.692,0,0,0-.41.888,5.046,5.046,0,0,0-.095,1.152c0,8.159,0,16.551,0,26.411a4.311,4.311,0,0,0,.062.768,2.833,2.833,0,0,0,.2.68,2.663,2.663,0,0,0,.964,1.112,2.775,2.775,0,0,0,.7.382,2.785,2.785,0,0,0,.787.162h.288a3.155,3.155,0,0,0,.706-.144,4.25,4.25,0,0,0,.728-.317c6.463-3.528,12.863-7.031,19.023-10.413,1.793-.968,3.617-1.961,5.424-2.951a2.948,2.948,0,0,0,.617-.451,2.975,2.975,0,0,0,.468-.573,3.045,3.045,0,0,0,.458-1.362,2.975,2.975,0,0,0-.02-.66,2.772,2.772,0,0,0-.174-.64,2.691,2.691,0,0,0-.835-1.1,4.561,4.561,0,0,0-.616-.4c-1.738-.963-3.534-1.943-5.338-2.913-.019-.012-.037-.024-.056-.035-6.117-3.351-12.5-6.844-18.971-10.382l-.048-.026-.036-.02-.067-.037a3.153,3.153,0,0,0-1.224-.373Zm35.31,27.9h0a11.77,11.77,0,0,1,0,1.376A11.77,11.77,0,0,0-8919.316,1222.964Zm-18.957-.185a2.989,2.989,0,0,0,.825.174A3,3,0,0,1-8938.273,1222.778Zm18.781-.624h0a.406.406,0,0,1,.094.122A.413.413,0,0,0-8919.492,1222.155Zm-14.459-2.059,0,.006-.006.008,0,.007-.023.036-.134.206.146-.224.016-.024Zm3.171-2.958a3.531,3.531,0,0,0-2.229,1.575A3.53,3.53,0,0,1-8930.78,1217.138Zm.368-.016h0a2.653,2.653,0,0,1,.326.032A2.664,2.664,0,0,0-8930.412,1217.122Zm-25.322-27h0a4.858,4.858,0,0,1,1.16,1.743c.413.821.918,1.949,1.5,3.35-.582-1.4-1.086-2.528-1.5-3.35A4.862,4.862,0,0,0-8955.734,1190.118Zm-7.657,1.933-.158.191C-8963.5,1192.177-8963.443,1192.113-8963.392,1192.051Zm.4-.449h0l-.052.054-.079.086.08-.086c.013-.014.028-.03.043-.045l.008-.008Z" transform="translate(8983.427 -1171.443)" fill="#fff"/>
</svg>
