<svg xmlns="http://www.w3.org/2000/svg" width="657" height="662.687"><g fill="#fff"><path data-name="Exclusão 1" d="M264.76 439.101h-1.894a18.367 18.367 0 0 1-5.168-1.065 18.1 18.1 0 0 1-4.61-2.513l108.09-104.163-108.141-104.159a18.594 18.594 0 0 1 4.742-2.571 18.113 18.113 0 0 1 5.242-1.045h2a20.686 20.686 0 0 1 8.044 2.454A181281.94 181281.94 0 0 1 398.7 294.794c.119.066.242.143.366.227 11.7 6.29 23.5 12.73 35.072 19.14a29.874 29.874 0 0 1 4.045 2.652 17.662 17.662 0 0 1 5.488 7.254 18.045 18.045 0 0 1 1.139 4.2 19.061 19.061 0 0 1 .127 4.336 20.018 20.018 0 0 1-3 8.949 19.655 19.655 0 0 1-3.077 3.761 19.424 19.424 0 0 1-4.054 2.96 6973.348 6973.348 0 0 1-35.631 19.388l-.093-.088.093.088a62965.27 62965.27 0 0 1-124.991 68.409 27.781 27.781 0 0 1-4.778 2.08 20.841 20.841 0 0 1-4.646.951Zm120.406-84.761c3.716 3.544 7.979 7.6 12.868 12.248l.249.237.419.4-.669-.635a9742.334 9742.334 0 0 1-12.867-12.251Zm1.334-47.241-25.116 24.156-.139.07.139-.07ZM253.087 435.523a17.462 17.462 0 0 1-6.336-7.307 18.623 18.623 0 0 1-1.344-4.464 28.842 28.842 0 0 1-.4-5.044C245 363.044 245 304.662 245 245.185a33.219 33.219 0 0 1 .62-7.57 17.666 17.666 0 0 1 2.694-5.83 18.931 18.931 0 0 1 4.723-4.58L361.178 331.36Z"/><path d="M324.296-.001h9.384q98.057 2.291 176.8 55.1c157.6 105.693 194.729 323.164 78.694 473.252-96.31 124.59-265.2 164.365-406.621 94.782a1.3 1.3 0 0 0-.867-.1L13.83 662.686h-1.618C-.278 660.279-.255 651.71 1.987 640.838q16.774-81.451 33.51-162.63a1.263 1.263 0 0 0-.1-.854c-70.552-139.63-32.996-309.884 89.2-406.207q86.9-68.508 199.699-71.148Zm-244.379 263Q57.163 351.43 93.805 434.538q2.394 5.436 16.425 32.9a1.308 1.308 0 0 1 .117.854L89.431 569.768a1.294 1.294 0 0 0 1.566 1.527l99.416-23.556a1.243 1.243 0 0 1 .88.1q22.56 11.558 32.733 16.037c166.293 73.079 353.839-43.913 361.319-224.34 6.3-151.991-118.662-274.485-269.67-267.651-110.973 5.014-208.098 83.6-235.758 191.114Z"/></g></svg>